<?xml version="1.0" standalone="no"?>
<!DOCTYPE svg PUBLIC "-//W3C//DTD SVG 20010904//EN"
 "http://www.w3.org/TR/2001/REC-SVG-20010904/DTD/svg10.dtd">
<svg version="1.0" xmlns="http://www.w3.org/2000/svg"
 width="1024.000000pt" height="1024.000000pt" viewBox="0 0 1024.000000 1024.000000"
 preserveAspectRatio="xMidYMid meet">
<metadata>
Created by potrace 1.14, written by Peter Selinger 2001-2017
</metadata>
<g transform="translate(0.000000,1024.000000) scale(0.100000,-0.100000)"
fill="#000000" stroke="none">
<path d="M1360 10229 c-707 -80 -1272 -654 -1350 -1371 -14 -136 -14 -7351 1
-7486 20 -185 68 -350 152 -517 234 -469 694 -788 1219 -845 136 -14 7351 -14
7486 1 185 20 350 68 517 152 469 234 788 694 845 1219 14 136 14 7351 -1
7486 -20 185 -68 350 -152 517 -234 469 -694 788 -1219 845 -119 12 -7384 12
-7498 -1z m3804 -1929 c25 -10 76 -39 113 -63 38 -24 127 -77 198 -117 72 -41
157 -91 190 -112 97 -60 164 -98 270 -153 55 -28 129 -70 165 -92 36 -23 110
-67 165 -99 55 -32 152 -89 215 -127 63 -39 140 -82 170 -97 73 -37 310 -172
363 -208 23 -16 116 -71 207 -122 502 -284 589 -335 635 -365 63 -42 317 -185
327 -185 5 0 26 -11 48 -25 l40 -25 0 -1160 c0 -928 -3 -1160 -13 -1160 -7 0
-91 46 -187 102 -96 56 -207 119 -247 139 -39 21 -104 58 -143 81 l-71 43 1
766 c0 493 -3 776 -10 793 -7 19 -28 35 -72 56 -35 16 -97 50 -138 76 -41 26
-142 86 -225 134 -82 48 -168 99 -190 114 -21 15 -73 43 -115 64 -77 37 -200
107 -305 172 -33 21 -132 80 -220 130 -88 51 -172 101 -186 111 -15 10 -47 27
-71 38 -45 19 -181 96 -303 171 -64 39 -237 139 -532 306 -62 35 -120 64 -129
64 -9 0 -56 -22 -104 -50 -48 -27 -92 -50 -97 -50 -6 0 -36 -17 -69 -38 -32
-21 -144 -87 -247 -147 -103 -61 -225 -132 -270 -158 -45 -27 -133 -75 -195
-108 -62 -32 -132 -72 -155 -88 -23 -16 -123 -75 -222 -131 -99 -57 -187 -108
-195 -115 -8 -8 -79 -47 -156 -88 -78 -42 -172 -94 -210 -118 -38 -23 -179
-106 -314 -184 l-245 -141 -5 -789 -5 -789 -50 -29 c-27 -17 -102 -57 -165
-90 -63 -33 -122 -65 -130 -72 -18 -16 -268 -159 -293 -168 -16 -6 -17 51 -15
1156 l3 1162 83 41 c46 23 159 87 250 142 383 229 431 257 517 302 109 56 214
116 315 180 73 46 340 200 510 293 47 26 140 80 207 120 265 157 421 247 491
284 77 40 419 240 537 314 54 33 222 127 232 129 1 0 22 -9 47 -20z m-1 -1571
c23 -12 73 -41 110 -66 38 -24 119 -70 181 -102 62 -32 155 -84 207 -116 51
-32 182 -108 289 -169 463 -266 615 -354 780 -451 l175 -103 3 -376 c1 -257
-1 -376 -8 -376 -12 0 -125 63 -261 146 -179 109 -264 156 -334 187 -38 17
-79 38 -90 46 -42 34 -87 61 -285 176 -113 64 -212 123 -220 130 -8 7 -71 42
-140 77 -69 36 -191 104 -270 152 -80 49 -156 92 -169 97 -20 8 -41 0 -125
-48 -55 -31 -131 -76 -167 -99 -36 -24 -117 -70 -181 -102 -63 -33 -146 -79
-184 -102 -38 -24 -154 -92 -259 -153 -104 -60 -197 -115 -205 -122 -8 -8 -51
-31 -95 -53 -85 -43 -241 -132 -445 -255 -69 -41 -128 -73 -132 -71 -5 3 -8
171 -8 374 l0 368 58 33 c31 18 66 38 77 45 11 6 43 25 70 42 28 17 118 70
200 118 83 48 184 108 225 133 41 25 95 55 120 67 55 26 270 147 325 184 51
34 277 165 375 217 41 22 134 74 205 116 72 42 131 76 133 77 1 0 22 -10 45
-21z m-1100 -1448 c50 -22 293 -160 373 -212 28 -19 114 -69 190 -112 410
-232 474 -267 486 -267 16 0 99 43 153 80 22 15 92 54 155 87 63 33 160 87
215 121 103 62 447 261 522 302 78 43 73 85 73 -605 0 -700 10 -630 -92 -681
-58 -30 -349 -198 -498 -289 -52 -32 -151 -87 -220 -122 -69 -36 -132 -71
-140 -78 -34 -27 -139 -85 -155 -85 -10 0 -68 29 -129 64 -61 34 -133 75 -161
90 -115 64 -407 232 -495 287 -52 32 -144 84 -205 115 -60 30 -116 63 -122 72
-10 12 -13 153 -13 627 0 532 2 625 16 625 1 0 23 -9 47 -19z m-763 -393 c0
-13 0 -291 0 -618 1 -453 4 -601 13 -620 8 -16 45 -41 107 -73 52 -26 119 -63
147 -82 29 -19 88 -54 130 -78 92 -52 212 -122 343 -202 52 -32 122 -71 155
-86 33 -15 98 -51 145 -79 47 -29 171 -102 275 -163 105 -60 209 -123 233
-139 23 -16 66 -40 95 -52 29 -13 76 -38 105 -55 29 -17 57 -31 63 -31 18 0
563 305 599 336 24 20 257 152 345 196 44 21 87 45 95 52 8 7 92 57 185 111
94 54 213 125 265 157 52 33 133 77 180 100 47 22 100 51 118 64 l32 25 0 630
c0 692 -4 654 58 610 15 -10 56 -33 92 -51 74 -37 278 -156 360 -209 30 -20
77 -47 103 -61 l47 -25 0 -631 c0 -489 -3 -634 -12 -646 -15 -19 -129 -89
-208 -128 -61 -31 -341 -192 -380 -220 -33 -23 -360 -210 -367 -210 -6 0 -142
-80 -398 -233 -210 -125 -272 -161 -350 -200 -44 -22 -114 -61 -155 -87 -41
-25 -151 -91 -245 -145 -93 -54 -188 -111 -210 -125 -22 -15 -64 -40 -93 -55
l-52 -27 -103 58 c-56 31 -120 69 -142 84 -22 15 -123 75 -225 134 -102 58
-192 111 -200 116 -8 5 -37 22 -65 36 -86 46 -348 196 -390 224 -53 36 -218
131 -335 195 -52 28 -135 75 -185 105 -49 29 -106 62 -125 72 -46 26 -171 101
-290 173 -52 32 -126 74 -165 93 -38 19 -101 53 -139 74 -118 69 -106 -14
-106 708 l0 629 43 29 c83 57 580 339 600 341 4 1 7 -9 7 -21z"/>
</g>
</svg>
